<svg width="13" height="13" viewBox="0 0 13 13" fill="none" xmlns="http://www.w3.org/2000/svg">
<g clip-path="url(#clip0)">
<path d="M8.8 0H4C1.7912 0 0 1.7912 0 4V8.8C0 11.0088 1.7912 12.8 4 12.8H8.8C11.0088 12.8 12.8 11.0088 12.8 8.8V4C12.8 1.7912 11.0088 0 8.8 0ZM11.6 8.8C11.6 10.344 10.344 11.6 8.8 11.6H4C2.456 11.6 1.2 10.344 1.2 8.8V4C1.2 2.456 2.456 1.2 4 1.2H8.8C10.344 1.2 11.6 2.456 11.6 4V8.8Z" fill="white"/>
<path d="M6.4002 3.19995C4.633 3.19995 3.2002 4.63275 3.2002 6.39995C3.2002 8.16715 4.633 9.59995 6.4002 9.59995C8.1674 9.59995 9.6002 8.16715 9.6002 6.39995C9.6002 4.63275 8.1674 3.19995 6.4002 3.19995ZM6.4002 8.39995C5.2978 8.39995 4.4002 7.50235 4.4002 6.39995C4.4002 5.29675 5.2978 4.39995 6.4002 4.39995C7.5026 4.39995 8.4002 5.29675 8.4002 6.39995C8.4002 7.50235 7.5026 8.39995 6.4002 8.39995Z" fill="white"/>
<path d="M9.83997 3.38649C10.0755 3.38649 10.2664 3.19558 10.2664 2.96009C10.2664 2.7246 10.0755 2.53369 9.83997 2.53369C9.60448 2.53369 9.41357 2.7246 9.41357 2.96009C9.41357 3.19558 9.60448 3.38649 9.83997 3.38649Z" fill="white"/>
</g>
<defs>
<clipPath id="clip0">
<rect width="12.8" height="12.8" fill="white"/>
</clipPath>
</defs>
</svg>
