<svg width="11" height="11" viewBox="0 0 11 11" fill="none" xmlns="http://www.w3.org/2000/svg">
<path d="M10.2006 6.48634V10.2006H8.14299V6.7351C8.14299 5.86454 7.84539 5.27041 7.10061 5.27041C6.53206 5.27041 6.19372 5.67081 6.04487 6.05812C5.99059 6.19659 5.97662 6.38931 5.97662 6.58313V10.2006H3.91834C3.91834 10.2006 3.94606 4.33118 3.91834 3.72307H5.97642V4.64123C5.97224 4.6481 5.96682 4.6555 5.96289 4.66216H5.97642V4.64123C6.24985 4.2005 6.73818 3.5709 7.83121 3.5709C9.1854 3.57087 10.2006 4.4967 10.2006 6.48634ZM1.76528 0.600586C1.06115 0.600586 0.600586 1.08392 0.600586 1.71953C0.600586 2.34128 1.04782 2.83929 1.73797 2.83929H1.75171C2.46949 2.83929 2.91588 2.34138 2.91588 1.71953C2.90235 1.08392 2.46949 0.600586 1.76528 0.600586ZM0.72283 10.2006H2.78033V3.72307H0.72283V10.2006Z" fill="white"/>
</svg>
