<svg width="151" height="16" viewBox="0 0 151 16" fill="none" xmlns="http://www.w3.org/2000/svg">
<path d="M14.6341 7.80669C14.5829 10.2181 12.6385 11.022 11.3593 11.022H4.50264V4.59141H11.3593C12.5874 4.59141 14.5829 5.39523 14.6341 7.80669ZM29.8825 4.59141H41.1909V0.17041H29.7802C27.4264 0.17041 24.3562 1.42638 22.7188 4.74213C22.3095 5.54595 21.3884 5.94786 20.6209 5.94786C19.8534 5.94786 18.9323 5.59619 18.523 4.74213C16.8856 1.37614 13.7642 0.17041 11.4105 0.17041H-0.000244141V4.59141V11.0722V12.4286V15.5434H11.4105C13.7642 15.5434 16.8344 14.2875 18.4718 10.9717C18.8811 10.1679 19.8022 9.766 20.5697 9.766C21.3373 9.766 22.2583 10.1177 22.6677 10.9717C24.3051 14.3377 27.3752 15.5434 29.729 15.5434H41.1397V11.0722H29.8825C28.6033 11.0722 26.6077 10.2684 26.6077 7.85693C26.6077 5.39523 28.5521 4.59141 29.8825 4.59141Z" fill="white"/>
<path d="M82.3308 0.17041H74.7578V2.02924H82.3308V0.17041Z" fill="white"/>
<path d="M64.3194 15.5935C62.1191 15.5935 60.3794 13.8352 60.3794 11.7252V4.13913C60.3794 1.97887 62.1703 0.270752 64.3194 0.270752C66.5197 0.270752 68.2594 2.02911 68.2594 4.13913V5.59605H66.3662V4.13913C66.3662 3.03388 65.4451 2.12958 64.3194 2.12958C63.1937 2.12958 62.2726 3.03388 62.2726 4.13913V11.7252C62.2726 12.8304 63.1937 13.7347 64.3194 13.7347C65.4451 13.7347 66.3662 12.8304 66.3662 11.7252V9.51467H64.1147V7.65584H68.2594V11.7252C68.2594 13.8352 66.5197 15.5935 64.3194 15.5935Z" fill="white"/>
<path d="M111.344 15.5936C109.144 15.5936 107.404 13.8352 107.404 11.7252V3.9382C107.404 1.77794 109.195 0.0698242 111.344 0.0698242C113.544 0.0698242 115.284 1.82818 115.284 3.9382V5.64632H113.391V3.9382C113.391 2.83295 112.47 1.92866 111.344 1.92866C110.218 1.92866 109.297 2.83295 109.297 3.9382V11.7252C109.297 12.8304 110.218 13.7347 111.344 13.7347C112.47 13.7347 113.391 12.8304 113.391 11.7252V10.5195H115.284V11.7252C115.335 13.8352 113.544 15.5936 111.344 15.5936Z" fill="white"/>
<path d="M47.5871 13.7348C48.2523 13.7348 48.8152 13.7348 49.685 13.7348C50.8108 13.7348 51.7318 12.8305 51.7318 11.7253V3.9885C51.7318 2.88324 50.8108 1.97895 49.685 1.97895H47.5871V13.7348ZM49.685 15.5936C48.457 15.5936 47.6894 15.5936 46.6149 15.5936H45.6938V0.120117H49.685C51.8853 0.120117 53.6251 1.87847 53.6251 3.9885V11.675C53.6251 13.8353 51.8341 15.5936 49.685 15.5936Z" fill="white"/>
<path d="M98.3468 15.3927C96.1465 15.3927 94.4067 13.6343 94.4067 11.5243V0.120117H96.3V11.4741C96.3 12.5793 97.221 13.4836 98.3468 13.4836C99.5748 13.4836 100.291 13.4836 101.366 13.4836V15.3424C100.342 15.3927 99.5748 15.3927 98.3468 15.3927Z" fill="white"/>
<path d="M57.872 0.120117H55.9788V15.5434H57.872V0.120117Z" fill="white"/>
<path d="M73.018 0.120117H71.1248V15.5434H73.018V0.120117Z" fill="white"/>
<path d="M79.5166 0.521973H77.6233V15.5936H79.5166V0.521973Z" fill="white"/>
<path d="M119.224 0.120117H117.331V15.5434H119.224V0.120117Z" fill="white"/>
<path d="M125.006 0.120117H123.113V15.5434H125.006V0.120117Z" fill="white"/>
<path d="M145.218 0.120117H143.324V15.5434H145.218V0.120117Z" fill="white"/>
<path d="M151 0.120117H149.106V15.5434H151V0.120117Z" fill="white"/>
<path d="M140.408 0.120117H138.514V15.5434H140.408V0.120117Z" fill="white"/>
<path d="M124.392 7.45483H117.637V9.31366H124.392V7.45483Z" fill="white"/>
<path d="M135.137 7.65576H128.383V9.51459H135.137V7.65576Z" fill="white"/>
<path d="M91.6947 7.55542H84.6846V9.41425H91.6947V7.55542Z" fill="white"/>
<path d="M91.8484 15.5946H89.9551V3.98942C89.9551 2.83393 89.034 1.92963 87.8572 1.92963C86.6803 1.92963 85.7592 2.83393 85.7592 3.98942V15.5946H83.866V3.98942C83.866 1.82915 85.6569 0.0708008 87.8572 0.0708008C90.0574 0.0708008 91.8484 1.82915 91.8484 3.98942V15.5946Z" fill="white"/>
<path d="M135.803 15.5935H133.909V3.93815C133.909 2.78266 132.988 1.87836 131.812 1.87836C130.635 1.87836 129.714 2.78266 129.714 3.93815V15.5935H127.82V3.93815C127.82 1.77788 129.611 0.0195312 131.812 0.0195312C134.012 0.0195312 135.803 1.77788 135.803 3.93815V15.5935Z" fill="white"/>
<path d="M149.362 15.292L143.58 2.029L145.166 1.07446L150.437 13.4332L149.362 15.292Z" fill="white"/>
</svg>
